<svg xmlns="http://www.w3.org/2000/svg" version="1.1" xmlns:xlink="http://www.w3.org/1999/xlink" xmlns:svgjs="http://svgjs.dev/svgjs" width="1440" height="1000" preserveAspectRatio="none" viewBox="0 0 1440 1000"><g mask="url(&quot;#SvgjsMask1018&quot;)" fill="none"><circle r="12.74" cx="1347.09" cy="541.29" filter="url(#SvgjsFilter1019)" fill="rgba(51, 121, 194, 0.58)"></circle><circle r="12.075" cx="375.985" cy="684.9250000000001" filter="url(#SvgjsFilter1019)" fill="rgba(51, 121, 194, 0.58)"></circle><circle r="8.705" cx="298.98499999999996" cy="939.8050000000001" filter="url(#SvgjsFilter1019)" fill="rgba(51, 121, 194, 0.58)"></circle><circle r="11.295" cx="975.795" cy="827.0749999999999" filter="url(#SvgjsFilter1019)" fill="rgba(51, 121, 194, 0.58)"></circle><circle r="13.035" cx="46.30500000000001" cy="719.745" filter="url(#SvgjsFilter1019)" fill="rgba(51, 121, 194, 0.58)"></circle><circle r="15.425" cx="1219.895" cy="155.375" filter="url(#SvgjsFilter1019)" fill="rgba(51, 121, 194, 0.58)"></circle><circle r="12.3" cx="989.77" cy="28.15" filter="url(#SvgjsFilter1019)" fill="rgba(51, 121, 194, 0.58)"></circle><circle r="14.26" cx="1425.11" cy="218.82999999999998" filter="url(#SvgjsFilter1019)" fill="rgba(51, 121, 194, 0.58)"></circle><circle r="15.175" cx="1077.585" cy="917.1949999999999" filter="url(#SvgjsFilter1019)" fill="rgba(51, 121, 194, 0.58)"></circle><circle r="14.48" cx="252.95" cy="151.98" filter="url(#SvgjsFilter1019)" fill="rgba(51, 121, 194, 0.58)"></circle><circle r="11.25" cx="908.47" cy="467.02" filter="url(#SvgjsFilter1019)" fill="rgba(51, 121, 194, 0.58)"></circle><circle r="9.035" cx="1410.785" cy="345.225" filter="url(#SvgjsFilter1019)" fill="rgba(51, 121, 194, 0.58)"></circle><circle r="14.645" cx="822.055" cy="687.025" filter="url(#SvgjsFilter1019)" fill="rgba(51, 121, 194, 0.58)"></circle><circle r="10.475" cx="269.625" cy="994.715" filter="url(#SvgjsFilter1019)" fill="rgba(51, 121, 194, 0.58)"></circle><circle r="9.005" cx="115.145" cy="587.305" filter="url(#SvgjsFilter1019)" fill="rgba(51, 121, 194, 0.58)"></circle><circle r="13.78" cx="53.79" cy="802.47" filter="url(#SvgjsFilter1019)" fill="rgba(51, 121, 194, 0.58)"></circle><circle r="15.905" cx="1374.715" cy="401.84499999999997" filter="url(#SvgjsFilter1019)" fill="rgba(51, 121, 194, 0.58)"></circle><circle r="10.23" cx="130.77" cy="246.67" filter="url(#SvgjsFilter1019)" fill="rgba(51, 121, 194, 0.58)"></circle><circle r="14.245" cx="427.665" cy="51.195" filter="url(#SvgjsFilter1019)" fill="rgba(51, 121, 194, 0.58)"></circle><circle r="15.77" cx="332.13" cy="53.81999999999999" filter="url(#SvgjsFilter1019)" fill="rgba(51, 121, 194, 0.58)"></circle><path d="M341.8 704.3L361.2 709.4 352 719.3C351 720.3 350.9 722.3 352 724 353.6 724.9 355.6 725 356.7 724L369 711.2 387 716 361.8 741.9C360.3 743.6 360.2 745.6 361.8 746.5 362.9 748.2 364.9 748.3 366.4 746.5L394.2 718 410.7 721.9 421.4 759.5 411.2 770.4 370.1 759.4C369.5 759.6 368.9 759.8 368.3 760 367.7 760.2 366.6 761.1 366.2 761.9 365.5 764.1 366.6 765.8 368.6 765.9L406.1 775.8 393.1 788.8 373.9 784.3C373.7 783.7 373.1 783.9 372.5 784.1 371.2 784.4 370.2 785.4 369.9 786.8 369.7 788.2 370.8 789.9 372.4 790.7L388 794.3 372.1 810.8C371.1 811.8 371 813.8 372.1 815.5 373.7 816.3 375.7 816.4 376.8 815.5L391.6 799.9 395.3 812.8C395.8 814.7 398 815.4 399.3 815 401.1 814.5 402.6 812.7 402.1 810.9L397.4 794.3 410.3 781.3 420.1 815.8C420.6 817.6 422.2 818.5 424.1 818 425.9 817.4 426.8 815.8 426.3 814L415.4 775.8 426 764.2 464.1 773.9 468.1 788.1 439.9 817.4C438.2 818.6 438.3 821.2 439.9 822.1 441 823.8 442.9 823.2 444.5 822.1L470.2 795.5 475.3 813.3 462.4 826.3C461.3 827.3 461.4 829.9 462.4 831S466 832 467.7 830.8L477.4 820.7 483.6 842.3C484.1 844.1 486.3 844.8 488.1 844.3 489.4 843.9 490.8 842.2 490.3 840.3L484.2 818.8 498.4 822.1C499.8 822.3 501.7 821.8 502.4 819.6 502.6 818.2 501.3 815.9 499.9 815.6L482.1 811.4 477 793.6 512.9 802.6C514.9 802.7 516.7 802.2 517.4 800 517.7 798.6 516.4 796.3 515 796L474.9 786.2 470.9 772 498 743.6 513.3 748 524.1 786.1C524.7 788 526.2 788.8 528.1 788.3 529.9 787.8 531.4 786 530.9 784.2L521.1 749.7 538.9 754 543.7 770.6C544.2 772.4 545.8 773.3 547.6 772.8 549.5 772.3 550.3 770.7 549.8 768.8L546.1 755.9 567 761.3C568.4 761.5 570.6 760.2 570.9 758.8 571 756.8 570.5 754.9 568.5 754.9L546.8 749 557.7 738C558.5 736.4 558.6 734.4 557.7 733.3 556.7 732.3 555.3 732 554.1 732.3 554.1 732.3 553.4 732.5 553 733.3L539 747.3 521.2 743 547.7 714.8C549.4 713.7 549.5 711.7 547.7 710.2 547 709.7 546.2 709.3 544.9 709.7 544.3 709.8 543.7 710 543.1 710.2L514 741.1 499.5 737.2 488.9 699.7 500.7 687.6 539.4 697.3C541.6 698 543.3 696.8 543.4 694.8 544.2 693.2 543.1 691.5 540.9 690.8L505.8 682.2 518.6 668.6 535.8 673C537.2 673.3 538.9 672.1 539.8 670.5 539.9 668.5 539.3 666.7 537.3 666.6L524.3 663 538.1 648.4C539.8 647.2 539.3 645.4 538.1 643.7 537.3 643.3 535.9 643 534.7 643.4 534.7 643.4 534.1 643.5 533.5 643.7L518.6 659.3 514.2 643.9C513.9 642.6 512.1 641.1 510.3 641.7 508.4 642.2 507.7 644.4 508.1 645.6L513.5 664.7 500.7 678.3 490 640.8C489.5 638.9 487.3 638.2 485.5 638.8S482.7 640.9 483.3 642.7L495 683.9 484.2 695 446.1 685.2 441.6 669.2 470.4 639.7C471.3 638.1 471.4 636.1 470.3 634.4 469.5 634 468.1 633.7 466.8 634.1 466.2 634.3 465.6 634.4 465.2 635.2L439.5 661.8 434.4 644 447.2 630.4C448.2 629.4 448.3 627.4 447.2 625.7 445.6 624.8 443.6 624.7 442.5 625.7L432.3 636.6 426.7 616.9C426.3 615.7 424 614.4 422.7 614.7 420.9 615.2 419.6 617.6 419.9 618.8L425.5 638.5 411.7 634.5C411.1 634.6 410.5 634.8 409.9 635 408.6 635.4 407.6 636.3 407.1 637.1 407.1 639.1 408.2 640.8 409.8 641.7L427.6 645.9 432.7 663.8 396.8 654.7C394.6 654 393 655.1 392.7 656.5 392 658.7 393.1 660.4 394.7 661.3L434.8 671.2 439.4 687.2 412.2 715.5 397.2 711.8 385.4 670.6C384.9 668.7 383.3 667.9 381.5 668.4 379.6 668.9 378.7 670.5 379.2 672.3L389.9 709.9 371.9 705 366.5 686C366.1 684.7 363.8 683.4 361.9 683.9 360.1 684.5 359.4 686.7 359.7 687.9L364.1 703.3 343.3 697.9C342.7 698.1 342.7 698.1 342 698.2 340.8 698.6 339.8 699.6 339.3 700.3 339.2 702.4 340.4 704 341.8 704.3ZM441.5 694.5L444.6 691.6 448.2 692.6 479.1 700.5 482.7 701.4 483.7 705.1 492.3 735.3 493.4 739 490.8 741.7 468.8 764.6 466.2 767.4 462 766.6 431.8 758.5 427.5 757.7 426.5 754 417.9 723.9 416.8 720.2 420 717.3 441.5 694.5Z" fill="rgba(51, 121, 194, 0.58)"></path><path d="M1071.7 631.3L1021.3 622.8 1010.8 607.4 1027.8 610.3C1029.6 611.1 1031 609.6 1031.8 607.9 1031.7 606.5 1030.5 604.5 1029.1 604.5L1005.7 600.1 995 585.3 1013.3 583.8 1031.5 599.3C1031.5 599.3 1032.1 599.6 1032.1 599.6 1033.2 600.1 1034.9 599.5 1036.1 598.6 1036.9 596.8 1036.8 595.4 1035.3 594L1022.1 583 1040.4 581.6 1079.8 613.8C1079.8 613.8 1080.1 614.7 1080.1 614.7 1081.2 615.2 1082.9 614.6 1084.1 613.7 1085.4 612.2 1085.1 610 1083.3 609.1L1049.2 580.7 1071.5 578.3 1086.8 591C1086.8 591 1086.8 591 1087.4 591.3 1088.5 591.8 1090 591.8 1091.1 590.9 1091.9 589.1 1092.1 587.1 1090.6 585.7L1080.4 577.5 1096.6 575.8C1098.6 576 1099.4 574.3 1099.4 572.9 1099.6 570.8 1098.1 569.5 1095.9 569.8L1079.9 570.9 1088.4 561.5C1089.2 559.7 1089.5 557.7 1087.7 556.9 1086.3 555.5 1084.8 555.6 1083.4 557L1070.7 572.3 1048.7 574.1 1077.4 539.5C1078.6 538.6 1078.2 536.3 1076.7 534.9 1075.6 534.4 1073.6 534.1 1072.2 535.6L1039.9 575 1021.6 576.4 1032.7 563.2C1034 561.7 1033.4 560 1031.9 558.6 1031 557.5 1028.8 557.9 1027.7 558.8L1012.8 577.3 994.2 579.3 1002 562.4 1024.1 554.3C1025.8 553.7 1026.6 551.9 1026 550.2 1025.9 548.8 1023.6 547.7 1021.9 548.3L1005.7 554.3 1013.5 537.4 1061.7 520.2C1063.4 519.6 1064.2 517.8 1063.5 516.1 1062.9 514.4 1061.2 513.6 1059.5 514.2L1017.3 529.3 1026.4 509.6 1045.1 502.7C1046.8 502 1047.6 500.3 1047 498.6 1046.3 496.9 1044.6 496.1 1042.9 496.7L1030.4 500.8 1037.1 486.3C1037.9 484.6 1037.3 482.9 1035.6 482.1 1033.8 481.3 1032.1 481.9 1031.3 483.6L1024.6 498.2 1020.2 486.3C1019.6 484.6 1017.9 483.8 1016.2 484.4S1013.7 486.8 1014.3 488.5L1020.9 506.3 1011.5 526.6 996.1 485C995.5 483.3 993.8 482.5 992.1 483.1 990.4 483.8 989.6 485.5 990.2 487.2L1007.7 534.8 999.9 551.6 994 535.5C993.4 533.8 991.6 533 989.9 533.6 988.2 534.2 987.4 536 988 537.7L996.2 559.7 988.7 576 978.5 561.4 982.3 537.8C982.3 536.4 981.1 534.4 979.6 534.5 977.6 534.3 976.5 535.2 975.7 536.9L972.8 553.9 962.6 539.3 971.1 488.9C971.3 486.9 970.4 485.8 968.7 485 966.6 484.8 965.3 486.3 964.7 487.4L956.9 531.8 944.3 513.3 947.5 494.3C948.3 492.5 946.8 491.1 945.1 490.3 943.6 490.4 941.7 491.6 941.4 493.6L939.2 506 929.7 493.1C929 491.4 927 491.2 925.1 492.4 924 493.3 923.7 495.3 924.6 496.4L933.9 509.9 921 507.4C918.9 507.2 917.6 508.6 917.6 510.1 916.8 511.8 917.7 512.9 918.9 513.5 919.4 513.7 919.4 513.7 920 514L939 517.1 951.6 535.6 907.9 528.1C906.1 527.3 904.7 528.8 903.9 530.5 904 532 904.9 533.1 906 533.6 906.6 533.9 906.6 533.9 906.6 533.9L957.3 543.2 967.5 557.8 950.5 554.9C948.5 554.6 947.4 555.5 946.6 557.3 946.6 558.7 947.2 560.4 948.4 560.9 949 561.2 949 561.2 949.6 561.5L973.2 565.3 983.4 579.9 965.7 581.6 947.1 566.7C945.7 565.3 943.4 565.7 942.3 566.6 941.5 568.3 941.2 570.3 943 571.1L956.2 582.2 938.2 584.5 898.6 551.3C897.7 550.2 895.4 550.6 894.3 551.5 893.5 553.2 893.2 555.2 894.7 556.6L928.8 585 906.8 586.9 892.1 574.4C890.6 573.1 888.4 573.4 887.6 575.2 886.4 576.1 886.2 578.1 887.7 579.4L898 587.7 881.7 589.4C880.3 589.4 878.9 590.9 878.7 592.9 879 593.8 879.9 594.9 881 595.4 881 595.4 881.6 595.7 882.2 595.9L898.5 594.3 890.2 604.6C889.1 605.5 889.4 607.7 890.3 608.9 890.9 609.1 890.9 609.1 890.9 609.1 892.7 609.9 894.4 609.3 894.9 608.1L907.3 593.4 929.6 591 900.9 625.7C900.1 627.5 900.1 628.9 901.6 630.3 901.6 630.3 902.2 630.5 902.2 630.5 903.3 631.1 904.8 631 906.2 629.6L939 590.4 956.7 588.8 945.7 602C944.9 603.7 944.6 605.7 946.4 606.5 946.1 607.1 946.7 607.4 946.7 607.4 947.9 607.9 949.6 607.3 950.7 606.4L965.6 587.9 983.8 586.5 976.3 602.7 954.2 610.9C952.6 611.5 951.5 613.8 952.1 615.5 953 616.6 954.7 617.4 956.2 617.4L972.6 610.9 964.8 627.7 917.2 645.2C915.5 645.9 914.7 647.6 915.4 649.3 916 651 917.7 651.8 919.4 651.2L961 635.9 951.7 656.2 933.8 662.8C932.1 663.4 931.3 665.1 931.9 666.8S934.3 669.3 936 668.7L947.9 664.3 941.2 678.9C940.4 680.6 941 682.3 942.8 683.1 944.5 683.9 946.2 683.3 947 681.5L953.7 667 958.7 679.2C959 680 959.3 680.9 959.9 681.1 960.5 681.4 961.9 681.4 962.7 681.1 964.4 680.4 965.2 678.7 964.6 677L957.5 658.9 966.9 638.5 982.8 680.4C983.1 681.3 983.4 682.1 984 682.4 984.6 682.7 986 682.6 986.8 682.3 988.5 681.7 989.3 679.9 988.7 678.2L970.6 630.4 978.4 613.6 984.1 630.3C984.4 631.1 985.5 631.7 986.1 631.9 986.7 632.2 987.3 632.5 988.1 632.2 989.8 631.5 990.9 629.2 990 628.1L982.1 605.4 989.7 589.2 1000.4 604 996 627.3C996 628.8 996.7 630.5 997.8 631 998.4 631.3 998.4 631.3 998.7 630.7 1000.4 631.5 1002.4 630.3 1002.6 628.3L1005.5 611.3 1016.3 626.1 1007 676.8C1007 678.2 1007.9 679.4 1009.1 679.9 1009.7 680.2 1009.7 680.2 1009.7 680.2 1011.7 680.4 1013.4 679.8 1013.6 677.8L1021.4 633.4 1034 651.9 1030.9 670.9C1030.6 672.9 1031.5 674 1032.7 674.6 1032.7 674.6 1033.3 674.8 1033.3 674.8 1035.3 675.1 1036.7 673.6 1037.2 672.4L1039.1 659.2 1048.4 672.7C1049 672.9 1049.5 673.2 1050.1 673.5 1050.7 673.7 1052.1 673.7 1053 673.4 1054.4 671.9 1055.2 670.2 1053.7 668.8L1044.4 655.3 1057.4 657.8C1059.4 658 1060.8 656.5 1061.3 655.4 1061.5 653.4 1060.1 652 1058.3 651.2L1039.3 648 1026.4 630.1 1070.2 637.6C1072.2 637.8 1074.2 636.6 1074.1 635.2 1074.4 633.2 1073.7 631.5 1071.7 631.3Z" fill="rgba(51, 121, 194, 0.58)"></path><path d="M631 232.3L678.3 212.9 695.3 220.5 679.4 227C677.5 227.2 677.1 229.2 677.3 231.1 678.1 232.3 680.1 233.3 681.3 232.6L703.5 224 720.5 231 705.7 241.8 682 238.3C682 238.3 681.4 238.3 681.4 238.3 680.1 238.5 679 239.9 678.5 241.3 678.8 243.2 679.6 244.4 681.6 244.8L698.6 247.2 683.8 258 633.4 251.4C633.4 251.4 632.6 250.8 632.6 250.8 631.4 251 630.3 252.4 629.8 253.7 629.4 255.7 630.9 257.5 632.8 257.2L676.8 263.4 659.1 277.2 639.4 274.5C639.4 274.5 639.4 274.5 638.8 274.5 637.5 274.7 636.3 275.5 635.9 276.8 636.1 278.7 637 280.6 638.9 281L652 282.6 639.1 292.6C637.3 293.4 637.5 295.3 638.3 296.5 639.1 298.4 641.1 298.8 642.9 297.3L655.9 287.9 653.6 300.5C653.8 302.4 654.7 304.2 656.6 304 658.6 304.4 659.8 303.6 660.2 301.6L662.9 281.9 680.6 268.7 674.5 313.4C674 314.7 675.5 316.4 677.5 316.8 678.8 316.7 680.6 315.8 681 313.8L687.7 263.4 702.5 252.5 700.1 269.6C699.7 271.6 701.1 272.7 703.1 273.1 704.4 273.6 706.2 272.1 706.7 270.7L709.6 247.1 724.3 235.6 726.5 254.1 712.1 272.6C711 274 711.2 275.9 712.6 277.1 713.4 278.3 715.9 277.9 717.1 276.5L727.6 263 729.9 281.4 698.1 321.4C697 322.8 697.2 324.7 698.6 325.9 700.1 327 702 326.7 703.1 325.3L731 290.3 733.7 311.9 721.4 327.6C720.3 329 720.5 330.9 722 332 723.4 333.1 725.3 332.9 726.4 331.5L734.8 321.4 736.8 337.3C737 339.2 738.5 340.3 740.4 340.1 742.3 339.8 743.4 338.4 743.1 336.5L741.2 320.6 751.2 328.4C752.6 329.5 754.5 329.3 755.6 327.9S756.5 324.5 755.1 323.4L740.1 311.7 737.4 289.5 772.3 316.8C773.7 317.9 775.6 317.7 776.8 316.2 777.9 314.8 777.6 312.9 776.2 311.8L736.3 280.6 734 262.2 747.6 272.8C749 273.9 750.9 273.6 752 272.2 753.1 270.8 752.9 268.9 751.4 267.8L732.9 253.3 730.7 235.5 747 242.5 756.2 264.6C757 265.8 759.1 266.8 760.3 266 762.1 265.2 762.6 263.8 762.3 261.9L755.9 245.9 772.2 253 791.6 300.2C792.4 302.1 793.8 302.5 795.7 302.3 797.5 301.4 797.9 299.4 797.8 298.2L781 256.4 801.5 265.5 808.8 283.3C809 285.2 811 285.6 812.9 285.3 814.1 284.6 815.2 282.5 814.3 280.7L809.6 269 824.5 274.9C826 276 827.8 275.1 828.8 273.1 829.3 271.7 828.4 269.9 827.1 269.4L812.1 262.9 824.4 258.1C826.2 257.3 826.6 255.3 825.9 254.1 825.6 252.2 824.3 251.7 823 251.9 822.4 251.9 822.4 251.9 821.7 252L803.9 259.4 783.5 250.3 824.6 233.6C826.5 233.4 826.9 231.4 826.7 229.5 825.9 228.3 824.6 227.8 823.3 228 822.6 228 822.6 228 822.6 228L774.7 246.9 758.3 239.8 774.3 233.4C776.1 232.5 776.6 231.1 776.4 229.2 775.6 228 774.1 226.9 772.9 227.1 772.2 227.2 772.2 227.2 771.6 227.2L749.5 236.4 733.2 229.4 747.3 218.6 770.9 221.5C772.9 221.9 774.6 220.4 775.1 219.1 774.9 217.2 774 215.3 772.1 215.6L755 213.2 769.1 201.8 820.3 209C821.7 209.5 823.4 208 823.9 206.6 823.6 204.7 822.8 202.9 820.8 202.5L776.8 196.3 794.6 183.1 813.6 186C815.6 186.4 817.3 184.9 817.1 182.9 817.6 181.6 816.7 179.8 814.7 179.4L801.6 177.8 814.6 167.8C815.8 167 816.2 165 815.3 163.2 814.6 162.6 813.2 162.1 812 162.3 812 162.3 811.3 162.4 810.7 162.5L797.7 172.4 799.4 159.3C799.8 158 798.3 156.2 797 155.8 796.3 155.8 796.3 155.8 796.3 155.8 794.4 156.1 793.3 157.5 793.5 158.8L790.7 177.8 773 191.6 779.1 147C778.9 145.1 778.1 143.9 776.1 143.5 776.1 143.5 775.5 143.6 775.5 143.6 774.2 143.7 773 144.5 772.6 146.5L765.3 197.1 751.2 207.8 753.6 190.8C753.3 188.9 752.5 187 750.6 187.3 750.5 186.6 749.9 186.7 749.9 186.7 748.6 186.9 747.5 188.3 747 189.6L744.1 213.2 729.3 224.1 727.1 206.3 741.6 187.7C742.7 186.3 742.4 183.8 741 182.7 739.6 182.2 737.7 182.4 736.5 183.2L726 197.4 723.7 179 754.9 139C756.1 137.6 755.8 135.7 754.4 134.6 753 133.5 751.1 133.7 749.9 135.1L722.7 170.1 719.9 147.8 731.6 132.9C732.7 131.4 732.5 129.5 731.1 128.4S727.7 127.5 726.6 129L718.8 138.9 716.9 123.1C716.6 121.2 715.2 120 713.3 120.3 711.4 120.5 710.3 121.9 710.5 123.9L712.5 139.7 701.8 132C701.1 131.5 700.4 130.9 699.8 131 699.1 131.1 698 131.8 697.4 132.6 696.3 134 696.5 135.9 697.9 137L713.6 148.6 716.3 170.9 680.7 143.6C680 143.1 679.3 142.5 678.6 142.6 678 142.7 676.8 143.5 676.3 144.2 675.1 145.6 675.4 147.5 676.8 148.6L717.4 179.7 719.7 198.2 706 187C705.3 186.4 704 186.6 703.4 186.6 702.8 186.7 702.1 186.8 701.6 187.5 700.5 188.9 700.8 191.5 702.1 191.9L720.8 207.1 723 224.8 706 217.9 697.4 195.7C696.7 194.6 695.2 193.4 694 193.6 693.3 193.7 693.3 193.7 693.4 194.3 691.5 194.5 690.5 196.6 691.3 198.4L697.8 214.4 680.8 207.5 662 159.5C661.2 158.3 659.9 157.8 658.6 158 658 158 658 158 658 158 656.2 158.9 655 160.3 655.9 162.2L672.7 204 652.2 194.9 644.8 177.1C644 175.2 642.6 174.8 641.4 174.9 641.4 174.9 640.7 175 640.7 175 638.9 175.9 638.5 177.9 638.7 179.1L644 191.4 629 184.8C628.4 184.9 627.8 185 627.1 185.1 626.5 185.1 625.3 185.9 624.7 186.6 624.3 188.6 624.6 190.5 626.6 190.9L641.6 197.5 629.2 202.2C627.4 203.1 627 205.1 627.2 206.3 628 208.2 630 208.6 631.9 208.3L649.7 201 670.1 209.4 629 226.1C627.1 227 626.1 229 626.9 230.2 627.8 232.1 629.2 233.2 631 232.3Z" fill="rgba(51, 121, 194, 0.58)"></path><path d="M388.6 981L373.3 974 381.2 967.8C382.1 967.2 382.4 965.7 381.8 964.4 380.7 963.5 379.2 963.2 378.4 964.3L368.2 971.7 356 966.9 377.4 951.3C378.2 950.3 378.5 948.8 377.9 947.9 376.8 946.6 375.3 946.3 374.5 947.3L350.9 964.6 332.6 956.6 352.5 945.1 330.5 938.4 346.5 926.4 373.4 937.8C373.4 938.3 373.9 938.2 374.4 938.2 375.3 938 376.2 937.5 376.6 936.4 377 935.4 376.3 934.1 375.3 933.2L350.9 923 361.6 915.5 373.3 920.4C373.8 920.8 374.3 920.8 374.8 920.7 375.3 920.7 376.2 920.1 376.5 919.1 376.9 918.1 376.2 916.7 375.2 916.3L366 912.1 379.3 901.8C380.7 901.2 380.5 899.7 379.9 898.4 379.3 897.5 377.8 897.2 376.5 898.3L363.2 908.1 362 898C361.8 896.6 360.3 895.8 359.3 895.9 357.9 896.1 357.1 897.2 357.2 898.6L358.7 911.5 348 919 345 893.3C344.8 891.8 343.8 891 342.3 891.2 341.4 891.3 340.1 892.4 340.2 893.8L343.6 922.4 327.6 934.4 327.3 911.7 310.8 927.2 308.4 907.2 331.6 890C332.9 888.9 332.7 887.4 332.1 886.5 331.5 885.6 330.1 885.3 328.7 886L307.8 901.9 306.3 889.1 316.5 881.1C317.9 880.5 318.2 879 317.1 877.7 316.5 876.8 315 876.5 313.7 877.6L305.7 883.3 303.7 866.7C303.6 865.2 302.5 864.4 301.1 864.6S298.8 865.8 299 867.2L300.9 883.9 291.8 880.1C290.2 879.3 288.8 880 288.5 881 287.7 882.5 288.3 883.9 289.8 884.2L301.6 889.6 303.1 902.5 279.1 891.8C277.6 891.5 276.2 892.1 275.9 893.1 275.1 894.6 275.7 896 277.2 896.3L303.7 907.7 306 927.8 286.3 916.5 291.3 938.7 273 930.6 269.7 902C269.5 900.6 268 899.8 267 899.9 265.6 900.1 264.7 901.2 264.9 902.6L268 928.8 255.7 923.5 254.2 910.6C254.1 909.2 253 908.3 251.6 908.5 250.6 908.6 249.3 909.7 249.5 911.2L250.6 921.2 235.4 914.7C233.8 914 232.5 914.6 232.2 916.1 231.8 917.1 232 918.5 233.4 918.8L248.8 925.7 240.8 932C239.9 932.6 239.6 934.1 240.2 935 240.8 935.9 241.8 936.2 242.2 936.2 242.7 936.1 243.2 936.1 243.6 935.5L253.9 928 266 932.9 244.6 948.5C243.8 949.5 243.5 951 244.1 951.9 244.7 952.8 245.7 953.2 246.6 953.1 247.1 953 247.1 953 247.5 952.5L271.1 935.2 289.5 943.2 269.5 954.7 291.6 961.3 275.6 973.4 248.6 962C247.6 961.6 246.2 961.8 245.4 963.3 245 964.4 245.7 965.7 246.7 966.6L271.1 976.8 260.4 984.3 248.7 979.4C247.7 978.5 246.3 979.2 245.5 980.7 245.1 981.7 245.8 983.1 246.8 984L256 987.7 242.7 998C241.3 998.6 241.5 1000 242.1 1001.4 242.6 1001.8 243.7 1002.2 244.1 1002.2 244.6 1002.1 245.1 1002 245.5 1001.5L258.9 991.7 260 1001.7C260.2 1003.2 261.7 1004 262.7 1003.9L262.7 1003.9C264.1 1003.7 265 1002.6 264.8 1001.2L263.3 988.3 274 980.8 277 1006.5C277.2 1008 278.3 1008.8 279.7 1008.6S282 1007.4 281.8 1006L278.5 977.4 294.4 965.4 294.7 988 311.2 972.6 313.6 992.6 290.4 1009.8C289.1 1010.9 289.3 1012.4 289.9 1013.2 290.5 1014.1 292 1014.5 293.3 1013.8L314.2 998.3 315.7 1010.7 305.5 1018.7C304.1 1019.3 303.8 1020.8 304.9 1022.1 305.5 1023 307 1023.3 308.4 1022.7L316.4 1016.4 318.3 1033.1C318.5 1034.6 319.5 1035.4 321 1035.2S323.2 1034 323.1 1032.6L321.1 1015.9 330.3 1019.7C330.8 1020.1 331.3 1020 331.7 1020 332.7 1019.9 333.1 1019.3 333.5 1018.8 334.3 1017.2 333.7 1015.9 332.2 1015.6L320.5 1010.2 319 997.3 342.9 1008C343.4 1008 343.9 1007.9 344.3 1007.9 345.3 1007.8 345.7 1007.2 346.1 1006.7 346.9 1005.1 346.3 1003.8 344.8 1003.5L318.3 992.1 316 972 335.7 983.3 330.7 961.1 349 969.1 352.3 997.8C352.5 999.2 354.1 1000 355 999.9 356.4 999.7 357.3 998.6 357.1 997.2L354.1 971.4 366.3 976.3 367.8 989.2C367.9 990.6 369 991.5 370.4 991.3S372.7 990.1 372.5 988.6L371.4 978.6 386.6 985.1C387.2 985.5 387.6 985.4 388.1 985.4 388.6 985.3 389.5 984.7 389.9 983.7 390.2 982.7 390.1 981.3 388.6 981ZM328.8 973.9L312.7 964.7 299.2 977.4 299 958.5 281.4 953.3 297.2 943.8 293.2 925.9 309.3 935.1 322.8 922.4 323 940.8 340.6 946.5 324.7 955.5 328.8 973.9Z" fill="rgba(51, 121, 194, 0.58)"></path><path d="M823 1006.3L794.9 988.6 788.6 959.7 816.8 968.6 831.9 998.2C831.9 998.2 832.1 998.5 832.1 998.5 832.7 999.1 833.8 999.1 834.7 998.9 835.8 998.4 836.2 997 835.3 996.1L822.1 970.3 835.8 974.6 841.8 985.9C841.8 985.9 842 986.2 842 986.2 842.6 986.8 843.7 986.9 844.6 986.6 845.7 986.1 846.1 984.7 845.3 983.8L841.4 976 851.4 979.3C852.2 979.6 853.7 978.8 854 978 854.6 976.9 853.6 975.7 852.7 975.4L842.7 972.1 850.5 968.2C851.7 967.7 852 966.3 851.2 965.4 850.7 964.2 849.3 963.9 848.4 964.7L837.1 970.7 823.7 966.1 849.5 952.9C850.7 952.4 851 951 850.2 950.1 849.7 948.9 848.3 948.6 847.4 949.4L817.8 964.4 789.6 955.5 811.8 935.3 845.1 936.8C846.3 936.9 847.2 936.1 847.2 934.9 847.3 933.8 846.5 932.9 845.3 932.9L815.9 931.5 826.6 921.8 839 922.4C840.1 922.4 841 921.6 841.1 920.5 841.1 919.4 840.3 918.5 839.2 918.4L830.7 918 839 910.5C840.1 910 839.9 908.5 839.1 907.7 838.3 906.8 837.2 906.7 836.3 907.5L828.6 914.5 829 906.1C829 904.9 828.2 904 827.1 904S825.1 904.7 825 905.9L824.5 918.3 813.8 928 815.2 898.6C815.2 897.5 814.4 896.6 813.3 896.6 812.2 896.5 811.3 897.3 811.2 898.4L809.7 931.8 787.8 951.7 781.5 922.9 798.9 895.6C799.5 894.5 799 893.4 798.2 892.5 797.1 891.9 795.9 892.4 795 893.2L779.5 917.7 776.4 903.7 783.4 892.9C784.1 891.8 783.5 890.7 782.7 889.8 781.6 889.2 780.5 889.7 779.9 890.2L775.3 897.7 772.9 887.4C772.7 886.5 771.6 885.3 770.5 885.8 769.3 886.3 768.4 887.1 768.9 888.3L771.3 898.6 763.9 894C762.8 893.4 761.6 893.9 761 894.5 760.7 895.3 760.6 896.4 761.2 897 761.2 897 761.4 897.3 761.4 897.3L772.2 904.3 775.2 918.3 750.7 902.8C749.6 902.1 748.5 902.7 747.9 903.2 747.5 904 747.5 905.2 748 905.8 748 905.8 748.3 906 748.3 906L776.4 923.8 782.7 952.6 754.5 943.7 739.4 914.1C738.9 913 737.5 912.6 736.6 913.4 735.5 914 735.1 915.4 735.9 916.2L749.2 942 735.5 937.7 729.5 926.4C729 925.3 727.6 924.9 726.7 925.7 725.6 926.2 725.2 927.6 726 928.5L729.9 936.4 719.9 933.1C719 932.7 717.6 933.5 717.3 934.4 717 935.2 717.2 936.1 717.7 936.6 718 936.9 718.3 937.2 718.8 937.3L728.9 940.6 721.1 944.4C719.9 945 719.6 946.4 720.4 947.2 720.4 947.2 720.6 947.5 720.6 947.5 721.2 948.1 722.3 948.2 723.2 947.9L734.5 941.9 748.2 946.2 722.4 959.5C721.2 960 720.8 961.4 721.7 962.3 721.7 962.3 721.9 962.6 721.9 962.6 722.5 963.2 723.6 963.2 724.5 963L754 947.9 782.2 956.9 760.3 976.8 727 975.3C725.9 975.2 725 976 724.9 977.2 724.9 978.3 725.7 979.2 726.8 979.2L755.9 980.9 745.3 990.6 732.8 990C731.7 989.9 730.8 990.8 730.8 991.9S731.5 993.9 732.7 994L741.1 994.3 733.5 1001.4C732.6 1002.2 732.5 1003.3 733.3 1004.2 734.1 1005.1 735.3 1005.1 736.2 1004.3L743.8 997.3 743.5 1005.8C743.4 1006.3 743.4 1006.9 743.9 1007.5S745 1008.1 745.6 1008.1C746.7 1008.2 747.6 1007.4 747.7 1006.2L748.2 993.8 758.9 984.1 757.5 1013.5C757.5 1014.1 757.5 1014.6 758 1015.2 758.3 1015.5 759.1 1015.8 759.7 1015.9 760.8 1015.9 761.7 1015.1 761.8 1014L763.3 980.6 785.2 960.7 791.5 989.6 773.8 1017.6C773.4 1018.5 773.4 1019.6 773.9 1020.2 773.9 1020.2 774.2 1020.5 774.2 1020.5 775.3 1021.1 776.5 1020.6 777.1 1020.1L792.6 995.6 795.7 1009.6 788.7 1020.3C788.3 1021.1 788.3 1022.3 788.8 1022.9 788.8 1022.9 789.1 1023.2 789.1 1023.2 790.2 1023.8 791.4 1023.3 791.9 1022.7L796.5 1015.3 798.9 1025.6C799.2 1025.9 799.1 1026.4 799.4 1026.7 799.9 1027.3 800.8 1027.6 801.6 1027.4 802.8 1026.9 803.7 1026.1 803.2 1024.9L800.8 1014.6 808.2 1019.2C809.3 1019.8 810.5 1019.3 811.1 1018.8 811.7 1017.7 811.2 1016.5 810.7 1015.9L799.9 1008.9 796.9 994.9 821.4 1010.5C822.5 1011.1 823.6 1010.6 824.2 1010 824.3 1008.3 824.1 1006.9 823 1006.3Z" fill="rgba(51, 121, 194, 0.58)"></path><path d="M1091 818.5L1143.2 808.5 1182.1 835.4 1139.4 855.7 1089.5 837.6C1089.5 837.6 1088.9 837.6 1088.9 837.6 1087.6 837.5 1086.2 838.6 1085.5 839.9 1084.7 841.7 1085.8 843.7 1087.7 843.9L1131.4 859.6 1110.7 869.5 1091.3 862.8C1091.3 862.8 1090.7 862.7 1090.7 862.7 1089.4 862.6 1088.1 863.8 1087.3 865 1086.5 866.9 1087.6 868.9 1089.6 869.1L1102.7 874 1087.3 881.1C1086 881.6 1085.2 884.1 1085.7 885.5 1086.2 887.4 1088.7 887.6 1090.1 887.1L1105.4 880 1100.5 893.1C1099.7 894.9 1100.8 896.9 1102.7 897.1 1104.6 897.9 1106.6 896.8 1106.8 894.8L1113.4 875.5 1134.1 866.2 1118.4 909.9C1117.6 911.8 1118.7 913.8 1120.7 913.9 1122.5 914.7 1124.5 913.6 1124.7 911.7L1142.8 861.8 1185.5 841.4 1181.7 889.2 1141.1 923.9C1139.7 925.1 1139.5 927 1140.7 928.4 1141.9 929.7 1143.8 929.9 1145.2 928.7L1181 898.2 1179.2 921.1 1164 934.1C1162.6 935.2 1162.5 937.2 1163.6 938.5 1164.8 939.9 1166.7 940.1 1168.1 938.9L1178.4 930.1 1177 947.9C1176.2 949.8 1178 951.2 1180 951.4 1181.9 951.5 1183.2 950.4 1183.4 948.4L1184.7 931.9 1193.5 942.2C1194.7 943.6 1196.6 943.7 1198 942.5S1199.5 939.5 1198.3 938.1L1185.4 922.9 1187.3 900 1217.8 935.8C1219 937.2 1220.9 937.3 1222.3 936.1 1223.6 935 1223.8 933 1222.6 931.7L1188 891 1191.7 843.8 1230.7 870.7 1240.1 921.5C1240.6 923.5 1242.5 924.3 1244.4 924.4 1246.3 923.9 1247.1 922.1 1247.3 920.1L1238.7 874.5 1257.6 887.6 1261.1 907.8C1261.6 909.7 1263.5 910.5 1265.4 910.7 1267.3 910.2 1268.1 908.3 1268.2 907L1265.5 893.3 1279.5 902.8C1280.7 903.5 1283.3 903.7 1284 901.9 1284.8 900 1285 898.1 1283.1 897.3L1269.1 887.9 1282.8 885.1C1284.8 884.6 1285.6 882.7 1285.7 881.5 1285.1 880.1 1284 878.8 1282.7 878.7 1282.7 878.7 1282 878.6 1282 878.6L1261.9 882.1 1243 869.1 1288.6 860.5C1290.6 860 1291.4 858.2 1291.5 856.9 1290.9 855.6 1289.8 854.2 1288.5 854.1 1288.5 854.1 1287.9 854 1287.9 854L1235.7 864 1196.7 837.2 1239.5 816.8 1289.4 834.9C1291.2 835.7 1293.3 834.6 1293.4 832.7 1294.2 830.8 1293.1 828.8 1291.2 828.6L1247.5 812.9 1268.2 803 1287.5 809.7C1289.4 810.5 1291.4 809.4 1291.6 807.5 1292.4 805.6 1291.2 803.6 1289.3 803.4L1276.2 798.5 1291.6 791.4C1292.9 790.9 1293.7 788.4 1293.2 787 1292.7 785.7 1291.4 785 1290.2 784.9 1289.5 784.8 1288.9 784.8 1288.2 785.4L1272.9 792.5 1277.7 779.4C1278.5 777.5 1277.4 775.5 1275.5 775.4 1275.5 775.4 1274.9 775.3 1274.9 775.3 1273.6 775.2 1272.2 776.4 1271.5 777.6L1264.8 797 1244.1 806.9 1259.8 763.2C1260.6 761.3 1259.4 759.3 1257.5 759.2 1257.5 759.2 1256.9 759.1 1256.9 759.1 1255.6 759 1254.2 760.2 1253.5 761.4L1235.4 811.3 1192.7 831.7 1196.4 784.5 1237.1 749.8C1238.5 748.7 1238.6 746.8 1237.4 745.4 1236.3 744 1234.4 743.8 1233 745L1197.2 774.9 1199 751.9 1214.2 739C1215.6 737.9 1215.7 735.9 1214.5 734.6S1211.5 733 1210.1 734.2L1199.7 743 1201.1 726.4C1201.2 724.5 1200 723.1 1198.1 723 1196.2 722.8 1194.8 724 1194.7 725.9L1193.4 742.5 1184.6 732.2C1184 731.5 1183.4 730.8 1182.1 730.7S1180.1 731.2 1179.5 731.8C1178.1 732.9 1177.9 734.9 1179.1 736.2L1192 751.4 1190.2 774.4 1159.7 738.5C1159.1 737.9 1158.5 737.2 1157.2 737.1 1156.6 737 1155.2 737.6 1154.6 738.1 1153.2 739.3 1153 741.2 1154.2 742.6L1188.8 783.2 1185.1 830.5 1146.1 803.6 1136.2 751.4C1135.6 750.1 1134.4 748.7 1133.2 748.6 1133.2 748.6 1132.5 748.6 1132.5 748.6 1130.6 749.1 1129.8 750.9 1129.7 752.2L1138.2 797.8 1119.4 784.8 1115.9 764.6C1115.3 763.3 1114.1 761.9 1112.9 761.8 1112.9 761.8 1112.2 761.7 1112.2 761.7 1110.3 762.2 1109.5 764.1 1109.4 765.4L1112.1 779.1 1098.1 769.6C1097.5 769.5 1096.9 768.9 1096.3 768.8 1095 768.7 1093.7 769.2 1092.9 770.5 1092.1 772.3 1092 774.2 1093.8 775L1107.8 784.5 1094.1 787.3C1092.2 787.7 1091.4 789.6 1091.3 790.9 1091.8 792.8 1093.6 793.6 1094.9 793.7L1115.1 790.2 1134 803.3 1088.3 811.8C1086.4 812.3 1085.6 814.2 1085.5 815.5 1087.2 817.5 1089.1 819 1091 818.5Z" fill="rgba(51, 121, 194, 0.58)"></path><path d="M446.5 351.1L435.8 387.9 423.4 394.3 427 381.9C427.8 380.7 426.8 379.5 425.6 378.8 424.5 378.7 422.9 379.4 422.8 380.5L417.5 397.5 405.5 404.2 406 390.5 419.2 378.2C419.2 378.2 419.4 377.8 419.4 377.8 419.9 377 419.6 375.7 419 374.8 417.8 374 416.7 373.9 415.6 374.9L406.2 383.8 406.7 370 434.2 343.6C434.2 343.6 434.9 343.4 434.9 343.4 435.4 342.6 435.1 341.3 434.5 340.4 433.5 339.2 431.8 339.3 431.1 340.5L406.9 363.4 407 346.6 417.8 336.3C417.8 336.3 417.8 336.3 418.1 335.9 418.6 335.1 418.7 334 418.1 333.1 416.9 332.4 415.4 332 414.3 333L407.2 339.9 407.4 327.7C407.7 326.2 406.5 325.4 405.4 325.3 404 325 402.8 326 402.9 327.7L402.2 339.7 396 332.5C394.8 331.7 393.3 331.4 392.5 332.6 391.4 333.6 391.3 334.7 392.2 335.8L402.5 346.6 401.9 363.2 378.6 338.7C378.1 337.8 376.3 337.9 375.2 338.9 374.7 339.7 374.3 341.2 375.3 342.3L401.8 369.8 401.2 383.6 392.4 374.2C391.4 373 390.1 373.3 388.9 374.3 388 374.9 388.1 376.6 388.6 377.5L401.1 390.2 401 404.2 389.1 397 385 379.8C384.7 378.5 383.4 377.7 382.1 378 381 377.9 380 379.6 380.4 380.9L383.4 393.4 371.5 386.2 362.9 348.8C362.6 347.5 361.3 346.7 360 347 358.7 347.3 358 348.6 358.3 349.9L365.8 382.6 351.9 374.1 348.4 359.6C348.1 358.3 346.8 357.5 345.5 357.8 344.2 358.2 343.4 359.4 343.8 360.7L345.7 370.3 335.5 364.1C334.3 363.3 332.9 363.6 332.2 364.9 331.4 366.1 331.8 367.4 333 368.2L343.2 374.4 334 376.7C332.6 377 331.9 378.2 332.2 379.5S333.8 381.6 335.1 381.3L348.9 378 363.3 386.7 330.9 394.5C329.6 394.8 328.8 396 329.2 397.4 329.5 398.7 330.7 399.4 332 399.1L369 390.3 380.9 397.5 368.3 400.5C367 400.9 366.2 402.1 366.6 403.4 366.9 404.7 368.1 405.5 369.4 405.2L386.6 401 398 408.1 386.3 414.4 369 409.4C368 409.3 366.4 410.1 366.3 411.1 366 412.6 366.5 413.5 367.8 414.3L380.2 417.9 368.4 424.2 331.6 413.5C330.1 413.2 329.2 413.7 328.5 415 328.1 416.4 329.1 417.6 329.9 418.1L362.3 427.8 347.4 435.6 333.5 431.6C332.3 430.8 331.1 431.8 330.4 433 330.3 434.1 331 435.7 332.5 436L341.5 438.7 331.1 444.7C329.8 445 329.4 446.5 330.1 448.1 330.7 449 332.2 449.3 333.1 448.8L343.9 443 341 452.5C340.6 453.9 341.6 455.1 342.7 455.2 343.9 455.9 344.8 455.4 345.3 454.6 345.6 454.2 345.6 454.2 345.8 453.7L349.8 439.9 364.7 432.1 355.2 464C354.5 465.3 355.5 466.4 356.7 467.2 357.8 467.3 358.7 466.7 359.2 465.9 359.4 465.5 359.4 465.5 359.4 465.5L370.8 428.6 382.6 422.2 378.9 434.6C378.6 436.1 379.1 437 380.4 437.8 381.4 437.9 382.8 437.6 383.3 436.7 383.5 436.3 383.5 436.3 383.8 435.9L388.7 418.7 400.5 412.4 400.2 425.7 387.4 438.2C386.3 439.2 386.3 440.9 386.9 441.8 388.1 442.6 389.6 442.9 390.4 441.7L399.8 432.8 399.9 446.4 371.7 473C370.8 473.6 370.9 475.3 371.4 476.2 372.7 477 374.1 477.3 375.3 476.3L399.5 453.5 398.9 470 388.4 479.8C387.2 480.8 387.3 482.6 388.5 483.3 389 484.2 390.5 484.6 391.7 483.6L398.8 476.7 398.6 488.9C398.5 490 399.4 491.2 400.9 491.5 401.6 491.3 402.5 490.8 403 490 403 490 403.2 489.5 403.5 489.1L403.7 476.9 410.6 483.9C411.2 484.8 412.9 484.8 413.8 484.2 414.1 483.8 414.1 483.8 414.1 483.8 414.8 482.6 414.5 481.3 413.7 480.8L403.8 470.2 404 453.4 427.3 477.8C428.5 478.6 429.6 478.7 430.8 477.7 430.8 477.7 431 477.3 431 477.3 431.5 476.5 431.6 475.4 430.6 474.3L404.4 446.3 404.7 433 413.6 442.4C414.8 443.1 416.3 443.5 417 442.3 417.5 442.5 417.7 442.1 417.7 442.1 418.2 441.3 417.9 440 417.3 439.1L404.9 426.3 405.4 412.6 416.9 419.6 421 436.8C421.3 438.1 422.9 439.1 424.2 438.8 425.1 438.2 425.9 437 426 435.9L422.6 423.1 434.4 430.4 443.3 467.4C443.6 468.7 444.8 469.5 446.2 469.1 447.5 468.8 448.2 467.6 447.9 466.3L440.2 433.9 454.5 442.7 457.8 456.6C458.1 457.9 459.4 458.7 460.7 458.3S462.8 456.8 462.4 455.5L460.2 446.2 470.5 452.5C471.7 453.3 473 452.9 473.8 451.7 474.5 450.5 474.2 449.2 473 448.4L462.7 442.1 472.2 439.5C472.9 439.4 473.5 439.2 473.8 438.8 474 438.4 474.1 437.3 474 436.7 473.7 435.3 472.4 434.6 471.1 434.9L457 438.6 442.7 429.8 475.3 421.7C475.9 421.5 476.6 421.4 476.9 421 477.1 420.5 477.2 419.5 477 418.8 476.7 417.5 475.5 416.7 474.2 417.1L437 426.3 425.1 419 438 416.3C438.7 416.1 439.2 415.3 439.5 414.9 439.7 414.5 440 414.1 439.8 413.4 439.5 412.1 437.8 411.1 436.9 411.7L419.4 415.5 407.9 408.5 419.9 401.8 436.9 407.1C438 407.2 439.3 406.9 439.8 406.1 440 405.7 440 405.7 439.6 405.4 440.4 404.2 439.7 402.6 438.2 402.3L425.8 398.6 437.8 391.9 474.7 403.3C475.8 403.4 476.7 402.8 477.2 402 477.5 401.6 477.5 401.6 477.5 401.6 477.8 400.1 477.5 398.8 476 398.5L443.7 388.8 458.6 381 472.4 385C473.9 385.4 474.8 384.8 475.3 384 475.3 384 475.6 383.6 475.6 383.6 475.9 382.1 474.9 380.9 474.1 380.4L464.4 377.9 475.3 372.1C475.5 371.7 475.8 371.3 476 370.9 476.3 370.5 476.4 369.4 476.2 368.8 475.2 367.6 474 366.8 472.9 367.8L462 373.6 465 364.1C465.3 362.6 464.4 361.5 463.5 361 462.1 360.6 460.9 361.6 460.1 362.8L456.1 376.7 441.6 384.7 451.1 352.8C451.4 351.3 450.7 349.7 449.7 349.6 448.2 349.3 446.9 349.6 446.5 351.1Z" fill="rgba(51, 121, 194, 0.58)"></path><path d="M31.8 840.5L41.3 837.2 40.3 843.9C40.1 844.6 40.6 845.4 41.6 845.8 42.5 845.7 43.3 845.2 43.5 844.5L45 835.8 53.9 832.7 50.6 850.5C50.5 851.6 51 852.5 51.9 852.4 52.9 852.8 53.7 852.3 53.8 851.1L57.4 831.5 65.3 828.6 80.2 841.1 79.1 848.5 59 855.5C58.8 855.7 58.6 855.9 58.4 856.2 58.2 856.4 58 857.1 58 857.6 58.4 858.7 59.3 859.1 60.2 858.5L78.5 852.2 76.7 861.2 67.5 864.7C67.3 864.5 67.1 864.8 66.8 865 66.4 865.5 66.3 866.2 66.5 866.8 66.8 867.5 67.8 867.9 68.7 867.8L76.1 864.9 74.2 876.2C74 876.9 74.5 877.7 75.5 878.1 76.4 878 77.2 877.5 77.4 876.8L79.2 866.2 84.4 870.5C85.1 871.2 86.2 870.8 86.6 870.3 87.2 869.6 87.4 868.5 86.6 867.8L80 862.3 81.7 853.3 95.4 864.8C96.2 865.4 97.1 865.4 97.7 864.6 98.3 863.9 98.2 863 97.5 862.4L82.3 849.6 83.5 841.8 102 835.2 107.6 839.9 104.1 860C103.7 860.9 104.5 862 105.4 861.9 106.4 862.3 107 861.6 107.3 860.6L110.6 842.4 117.7 848.4 115.9 857.4C115.8 858.1 116.5 859.1 117.2 859.3S119 858.7 119.4 857.8L120.6 850.9 129.2 858.1C129.9 858.7 131 858.4 131.6 857.6 132 857.1 132.2 856 131.4 855.4L122.9 848.2 129.7 845.5C130.3 845.2 130.9 844.5 130.6 843.4 130.3 842.7 129.2 842.2 128.5 842.5L119.9 845.7 112.8 839.7 130.2 833.4C131.1 832.9 131.7 832.2 131.4 831.1 131.1 830.4 129.9 829.8 129.3 830.1L109.9 837.2 104.3 832.5 107.6 813.1 115.1 810.7 130.3 823.5C131 824.1 131.9 824 132.5 823.3 133.2 822.5 133.3 821.4 132.5 820.8L118.8 809.2 127.4 806 134 811.5C134.8 812.2 135.7 812.1 136.3 811.4 136.9 810.6 136.8 809.7 136.1 809.1L130.9 804.8 141.1 801.2C141.7 800.9 142.3 799.7 142 799.1 141.5 798.2 140.8 797.6 139.9 798.1L129.3 801.7 130.7 794.1C130.6 793.2 130.1 792.4 129.4 792.2 128.7 792 128.1 792.3 127.6 792.8 127.6 792.8 127.4 793 127.5 793.5L125.6 803.2 117 806.4 120.1 787.3C120.5 786.4 120 785.5 118.8 785.4 118.4 785.4 117.9 785.4 117.5 785.9 117.3 786.2 117.1 786.4 116.9 786.7L113.5 807.6 106.4 810.1 91.5 797.5 93 789.2 111.8 782.3C112.9 782 113.2 781.1 112.7 780.2 112.6 779.3 111.7 778.9 110.6 779.3L93.6 785.5 95.1 776.3 103.5 773.3C104.2 773 104.5 772.1 104.4 771.2 103.9 770.3 103.2 769.7 102.3 770.2L95.9 772.3 97.6 762.4C97.9 761.5 97.2 760.9 96.3 760.5 95.8 760.5 95.2 760.8 94.7 761.3 94.7 761.3 94.5 761.6 94.3 761.8L92.5 772.4 86.4 767.3C85.9 766.8 84.8 766.7 84.1 767.5 83.5 768.2 83.8 769.3 84.3 769.7L91.9 776.1 90.4 785.3 75.5 772.7C74.8 772.1 73.7 772.4 73.1 773.2S72.5 774.8 73.2 775.4L89.6 789.2 88.3 796.8 69.7 803.4 63.4 798.1 67.1 777.8C67 776.9 66.5 776 65.5 775.6 65.1 775.7 64.4 776 64 776.4 63.8 776.7 63.6 776.9 63.6 777.4L60.4 795.6 53.3 789.6 54.8 780.4C55 779.7 54.5 778.9 53.5 778.5 52.6 778.6 51.8 779.1 51.6 779.8L50.4 787.1 42.6 780.6C42.1 780.1 40.7 780.3 40.3 780.7 39.7 781.5 39.8 782.8 40.3 783.2L48.1 789.8 41.3 792C41.1 792.3 40.9 792.5 40.7 792.8 40.3 793.2 40.1 793.9 40.1 794.4 40.7 795.3 41.6 795.6 42.5 795.5L51.1 792.3 58.2 798.3 40.8 804.6C39.7 804.9 39.3 805.8 39.6 806.5 39.9 807.6 40.8 808 41.7 807.9L61.1 800.8 67.5 806.1 64.1 825.5 56.9 828.2 40.5 814.3C39.7 813.7 38.8 813.8 38.2 814.5 37.6 815.3 37.7 816.2 38.4 816.8L53.3 829.4 44.5 832.4 36.9 826C36.4 825.6 35.1 825.7 34.5 826.4 33.9 827.2 34.2 828.3 34.7 828.7L40.8 833.8 30.6 837.4C30.4 837.7 30.4 837.7 30.2 837.9 29.8 838.4 29.7 839.1 29.7 839.6 30.2 840.4 31.2 840.8 31.8 840.5ZM70.4 808.6L70.9 806.5 72.7 805.9 87.7 800.5 89.4 799.9 90.9 801.2 102.9 811.3 104.4 812.5 104.1 814.3 101.3 830 101 831.9 99.1 832.7 84.3 837.8 82.3 838.7 80.8 837.5 68.8 827.4 67.4 826.1 67.9 824 70.4 808.6Z" fill="rgba(51, 121, 194, 0.58)"></path><path d="M1267.8 519.3L1269.2 496.9 1280.7 503.9C1281.9 504.8 1283.9 504.4 1285.3 503 1285.8 501.3 1285.5 499.3 1283.8 498.7L1269.7 489.5 1270 472 1299.5 491.4C1301.2 491.9 1303.2 491.6 1304 490.4 1305.1 488.4 1304.8 486.4 1303.1 485.9L1270.5 464.6 1271.8 437.9 1295.6 457.4 1293.5 426.8 1316 441.1 1314.5 480C1313.9 480.3 1314.2 480.9 1314.5 481.4 1315.1 482.6 1316.2 483.4 1317.7 483.4 1319.1 483.4 1320.5 481.9 1321.1 480.2L1322.3 445 1336.8 454.8 1336.1 471.7C1335.8 472.6 1336.1 473.1 1336.4 473.7 1336.7 474.3 1337.9 475.1 1339.3 475.1 1340.7 475.1 1342.2 473.6 1342.1 472.2L1343.1 458.7 1362.2 470.5C1363.6 471.9 1365.3 471 1366.7 469.6 1367.6 468.4 1367.3 466.4 1365.2 465.3L1346.8 453.2 1358.7 447.1C1360.4 446.2 1360.7 443.9 1360.1 442.8 1359.2 441.1 1357.5 440.5 1355.8 441.4L1340.4 449.3 1326 439.5 1356.7 423.6C1358.4 422.7 1358.9 421 1358 419.3 1357.5 418.2 1355.4 417.1 1353.7 417.9L1319.6 435.6 1297.1 421.3 1325.3 410.3 1298.2 396.9 1322.1 384.6 1354.4 405.3C1356.4 406.5 1358.2 405.6 1359 404.4 1359.8 403.3 1359.5 401.3 1358.1 399.9L1328.3 381.4 1343.7 373.4 1358.4 382.4C1359.9 383.8 1361.9 383.5 1363 381.5 1363.8 380.3 1363.5 378.3 1361.5 377.2L1350.5 369.9 1370.4 359.6C1372.1 358.7 1372.7 357 1371.8 355.3S1369.2 353 1367.5 353.9L1347.6 364.2 1348 351C1348.2 348.7 1346.8 347.3 1345.4 347.4 1343.1 347.1 1341.7 348.5 1342 350.5L1340.8 367.7 1325.4 375.7 1327.5 340.7C1327.2 338.7 1325.8 337.3 1324.3 337.3 1322 337.1 1320.6 338.5 1320.9 340.5L1319.2 378.9 1295.3 391.2 1300 361.4 1274.8 378 1276.1 351.4 1310.3 333.8C1312 332.9 1312.2 330.6 1311.6 329.5 1310.8 327.8 1309 327.2 1307.3 328.1L1276.1 344.3 1277 326.5 1292.3 318.6C1294 317.7 1294.6 316 1293.7 314.3 1293.1 313.1 1291.1 312 1289.4 312.9L1277.4 319 1278.3 297C1278.5 294.7 1277.1 293.3 1275.1 293.6 1273.7 293.6 1272 294.5 1272.3 296.5L1270.8 318.8 1259.3 311.8C1258.2 311 1256.2 311.3 1255.3 312.5 1254.5 313.6 1254.5 315.1 1254.8 315.6 1255.1 316.2 1255.4 316.8 1256.2 317L1270.4 326.3 1270 343.8 1240.6 324.4C1238.9 323.9 1236.9 324.2 1236 325.3 1235.2 326.5 1235.2 327.9 1235.8 329 1236.1 329.6 1236.1 329.6 1236.9 329.9L1269.6 351.2 1268.2 377.9 1244.5 358.4 1246.6 389 1224.1 374.7 1225.6 335.8C1225.5 334.3 1224.7 332.6 1222.4 332.4 1220.9 332.4 1219.5 333.8 1219 335.6L1217.7 370.8 1203.3 361 1203.9 344.1C1204.5 342.3 1203 340.9 1200.7 340.7 1199.3 340.7 1197.9 342.1 1197.3 343.9L1196.9 357 1177.9 345.3C1176.4 343.9 1174.7 344.7 1173.3 346.2 1173 347 1173.1 348.5 1173.4 349 1173.6 349.6 1173.9 350.2 1174.8 350.5L1193.3 362.5 1181.3 368.7C1179.6 369.6 1179.4 371.9 1180 373L1180 373C1180.8 374.7 1182.6 375.3 1184.3 374.4L1199.6 366.4 1214.1 376.3 1183.4 392.1C1181.7 393 1181.1 394.7 1182 396.4S1184.6 398.7 1186.3 397.8L1220.4 380.2 1242.9 394.5 1214.7 405.5 1241.8 418.8 1217.9 431.2 1185.6 410.4C1183.6 409.3 1181.9 410.2 1181 411.3 1180.2 412.5 1180.5 414.5 1182 415.9L1211.1 434.7 1196.3 442.3 1181.6 433.4C1180.2 432 1178.2 432.3 1177.1 434.3 1176.2 435.5 1176.5 437.5 1178 438.9L1189.5 445.9 1169.6 456.1C1167.9 457 1167.4 458.8 1168.2 460.5S1170.8 462.7 1172.5 461.8L1192.5 451.6 1192.1 464.7C1191.8 465.6 1192.1 466.2 1192.4 466.7 1193 467.9 1193.8 468.1 1194.7 468.4 1197 468.7 1198.4 467.2 1198.1 465.2L1199.3 448 1214.6 440.1 1212.5 475C1212.8 475.6 1213.1 476.2 1213.4 476.8 1214 477.9 1214.8 478.2 1215.7 478.4 1218 478.7 1219.4 477.2 1219.1 475.2L1220.9 436.9 1244.8 424.5 1240 454.4 1265.3 437.7 1263.9 464.4 1229.8 482C1228.1 482.9 1227.8 485.2 1228.4 486.3 1229.3 488 1231 488.5 1232.7 487.7L1263.4 471.8 1263.1 489.3 1247.7 497.2C1246 498.1 1245.5 499.8 1246.4 501.5S1249 503.8 1250.7 502.9L1262.6 496.7 1261.7 518.8C1261.5 519.6 1261.8 520.2 1262.1 520.8 1262.4 521.3 1263.5 522.2 1264.9 522.2 1266.4 522.1 1268.1 521.3 1267.8 519.3ZM1248.4 441.4L1252.4 417 1230.2 406.1 1253.6 396.9 1251.8 372.6 1271.2 387.8 1291.6 374.4 1287.6 398.8 1309.8 409.6 1287 418.5 1288.2 443.1 1269.4 427.6 1248.4 441.4Z" fill="rgba(51, 121, 194, 0.58)"></path><path d="M266.3 310L247.2 305.9 254.7 296.8C255.6 295.9 255.6 294.1 254.5 292.7 253.1 292 251.3 292 250.6 293.5L240.8 304.5 225.7 302 246.2 279C246.9 277.5 246.9 275.8 246 274.9 244.4 273.7 242.7 273.7 242 275.1L219.3 300.6 196.4 296 216.3 278 189.5 275.9 204.8 258.2 238.3 264.5C238.5 265 239 264.9 239.6 264.7 240.6 264.3 241.5 263.4 241.7 262.2 241.9 260.9 240.8 259.5 239.4 258.8L209 253.2 219.4 242 233.9 244.7C234.6 245.1 235.2 244.9 235.7 244.7 236.2 244.5 237.1 243.6 237.3 242.4 237.4 241.1 236.4 239.7 235.1 239.6L223.6 237 236.2 222C237.6 220.9 237.1 219.4 236 217.9 235.1 217.1 233.4 217.1 232.1 218.7L219.3 233.1 215.5 222C215 220.4 213 219.9 212 220.3 210.4 220.8 209.7 222.2 210.2 223.8L215.1 238.1 204.7 249.4 195 220.7C194.4 219.2 193 218.5 191.4 219 190.3 219.4 189.1 221 189.7 222.6L200.5 254.4 185.3 272 179.4 246.2 164.3 267.9 156.7 245.7 178.8 220.3C180.1 218.7 179.5 217.1 178.6 216.3 177.7 215.4 176 215.4 174.6 216.5L154.7 239.8 149.8 225.5 159.5 213.9C160.9 212.9 160.9 211.1 159.3 209.9 158.4 209 156.6 209 155.4 210.6L147.7 219.2 141.3 200.6C140.8 199 139.4 198.3 137.8 198.9S135.5 200.8 136 202.4L142.4 221 131 218.9C129.1 218.4 127.7 219.5 127.5 220.7 127 222.7 128 224.1 129.8 224.1L144.5 227.3 149.4 241.6 119.5 235.3C117.7 235.3 116.3 236.4 116.1 237.7 115.6 239.6 116.7 241 118.4 241L151.4 247.5 159 269.7 133.8 261.8 145 285.8 122.1 281.2 111.2 249.4C110.7 247.8 108.7 247.3 107.7 247.6 106.1 248.2 105.4 249.6 105.9 251.2L115.9 280.3 100.7 277.3 95.8 263C95.2 261.4 93.8 260.7 92.2 261.2 91.1 261.6 89.9 263.2 90.5 264.8L94.3 275.9 75.3 272.3C73.3 271.8 71.9 272.9 71.9 274.7 71.8 275.9 72.3 277.5 74.1 277.5L93.3 281.6 85.7 290.7C84.8 291.6 84.8 293.3 85.7 294.2 86.6 295.1 87.9 295.2 88.4 295.1 88.9 294.9 89.5 294.7 89.8 294L99.6 282.9 114.7 285.5 94.2 308.5C93.5 309.9 93.5 311.7 94.4 312.6 95.3 313.4 96.5 313.6 97.6 313.2 98.1 313.1 98.1 313.1 98.5 312.3L121.1 286.8 144 291.4 124.1 309.5 150.9 311.6 135.6 329.2 102.1 322.9C100.8 322.8 99.2 323.3 98.7 325.3 98.6 326.5 99.6 327.9 101.1 328.6L131.4 334.2 121 345.5 106.5 342.7C105.1 342 103.6 343.1 103.1 345.1 103 346.3 104 347.7 105.5 348.4L116.8 350.5 104.2 365.4C102.8 366.5 103.3 368.1 104.4 369.5 105.1 369.8 106.3 370 106.9 369.8 107.4 369.7 107.9 369.5 108.3 368.8L121.1 354.3 124.9 365.4C125.4 367 127.4 367.5 128.5 367.2L128.5 367.2C130 366.6 130.7 365.2 130.2 363.6L125.3 349.3 135.7 338.1 145.4 366.7C146 368.3 147.4 369 149 368.4S151.3 366.5 150.7 364.9L139.9 333.1 155.1 315.4 161 341.3 176.1 319.5 183.7 341.8 161.6 367.1C160.3 368.7 160.9 370.3 161.8 371.2 162.7 372.1 164.4 372 165.8 371L185.9 348.1 190.6 361.9 180.9 373.5C179.5 374.6 179.5 376.4 181.1 377.6 182 378.5 183.8 378.4 185.2 377.4L192.7 368.3 199.1 386.8C199.6 388.4 201.1 389.1 202.6 388.6S204.9 386.6 204.4 385L198 366.5 209.4 368.5C210.1 368.9 210.6 368.7 211.2 368.5 212.2 368.1 212.6 367.4 212.9 366.7 213.4 364.8 212.4 363.3 210.6 363.4L195.9 360.1 191 345.8 221 352.1C221.5 351.9 222 351.8 222.5 351.6 223.6 351.2 224 350.5 224.3 349.8 224.8 347.8 223.7 346.4 222 346.4L189 340 181.4 317.7 206.6 325.7 195.4 301.7 218.3 306.3 229.2 338.1C229.7 339.7 231.7 340.2 232.7 339.8 234.3 339.3 235 337.8 234.5 336.3L224.7 307.6 239.8 310.2 244.6 324.5C245.2 326.1 246.6 326.8 248.2 326.2S250.5 324.3 249.9 322.7L246.1 311.6 265.1 315.1C265.8 315.5 266.4 315.3 266.9 315.1 267.4 314.9 268.3 314 268.5 312.8 268.6 311.6 268.1 310 266.3 310ZM196.4 316.7L175.8 310.1 163.6 328 158.6 306.6 137.4 305 153 290.1 144 270.7 164.6 277.3 176.8 259.5 181.6 280.4 203.1 282.5 187.2 296.8 196.4 316.7Z" fill="rgba(51, 121, 194, 0.58)"></path></g><defs><mask id="SvgjsMask1018"><rect width="1440" height="1000" fill="#ffffff"></rect></mask><filter id="SvgjsFilter1019"><feGaussianBlur stdDeviation="1"></feGaussianBlur></filter></defs></svg>